<svg xmlns="http://www.w3.org/2000/svg" xmlns:xlink="http://www.w3.org/1999/xlink" xml:space="preserve" version="1.1" style="shape-rendering:geometricPrecision;text-rendering:geometricPrecision;image-rendering:optimizeQuality;" viewBox="0 0 293 550" x="0px" y="0px" fill-rule="evenodd" clip-rule="evenodd">
  <g>
    <path class="fil0" d="M67 181l160 0 0 -84c0,-44 -36,-80 -80,-80 -44,0 -80,36 -80,80l0 84zm176 0c28,1 50,23 50,51l0 158c0,28 -23,50 -50,50l-193 0c-27,0 -50,-22 -50,-50l0 -158c0,-28 22,-50 50,-51l0 -84c0,-53 43,-97 97,-97 53,0 96,44 96,97l0 84zm0 17l-193 0c-18,0 -33,15 -33,34l0 158c0,18 15,33 33,33l193 0c18,0 33,-15 33,-33l0 -158c0,-19 -15,-34 -33,-34z"/>
    <path class="fil0" d="M147 263c15,0 28,13 28,28l0 40c0,15 -13,28 -28,28 -16,0 -29,-13 -29,-28l0 -40c0,-15 13,-28 29,-28zm0 17c-7,0 -12,5 -12,11l0 40c0,6 5,11 12,11 6,0 11,-5 11,-11l0 -40c0,-6 -5,-11 -11,-11z"/>
  </g>
</svg>