<svg xmlns="http://www.w3.org/2000/svg" xmlns:xlink="http://www.w3.org/1999/xlink" version="1.1" x="0px" y="0px" viewBox="0 0 55 68.75" style="enable-background:new 0 0 55 55;" xml:space="preserve">
<g>
    <g>
        <path d="M27.6519775,29.5772095c-4.7548828,0-8.6240234-3.8686523-8.6240234-8.6240234s3.8691406-8.6245117,8.6240234-8.6245117    c4.7558594,0,8.625,3.8691406,8.625,8.6245117S32.4078369,29.5772095,27.6519775,29.5772095z M27.6519775,13.3286743    c-4.2041016,0-7.6240234,3.4204102-7.6240234,7.6245117s3.4199219,7.6240234,7.6240234,7.6240234s7.625-3.4199219,7.625-7.6240234    S31.8560791,13.3286743,27.6519775,13.3286743z"/>
    </g>
    <g>
        <path d="M37.3052979,34.2905884c-0.1972656,0-0.3847656-0.1181641-0.4638672-0.3129883    c-0.1035156-0.2558594,0.0205078-0.5473633,0.2763672-0.6508789c1.8984375-0.765625,3.125-2.578125,3.125-4.6171875    c0-1.5981445,0.6220703-3.1010742,1.7529297-4.2319336c1.9433594-1.9433594,1.9433594-5.1054688,0-7.0493164    c-1.1308594-1.1308594-1.7529297-2.6337891-1.7529297-4.2319336c0-2.7485352-2.2363281-4.9848633-4.984375-4.9848633    c-1.5986328,0-3.1015625-0.6225586-4.2324219-1.7529297c-1.9433594-1.9433594-5.1054688-1.9433594-7.0488281,0    c-1.1308594,1.1303711-2.6337891,1.7529297-4.2324219,1.7529297c-2.7480469,0-4.984375,2.2363281-4.984375,4.9848633    c0,1.5981445-0.6220703,3.1010742-1.7529297,4.2319336c-0.9414063,0.9418945-1.4599609,2.1933594-1.4599609,3.5249023    s0.5185547,2.5830078,1.4599609,3.5244141c1.1308594,1.1308594,1.7529297,2.6337891,1.7529297,4.2319336    c0,2.0395508,1.2265625,3.8520508,3.1240234,4.6171875c0.2568359,0.1035156,0.3808594,0.3945313,0.2773438,0.6508789    c-0.1044922,0.2568359-0.3994141,0.378418-0.6503906,0.2768555c-2.2792969-0.9189453-3.7509766-3.0952148-3.7509766-5.5449219    c0-1.3310547-0.5185547-2.5830078-1.4599609-3.5249023c-1.1308594-1.1298828-1.7529297-2.6328125-1.7529297-4.2314453    s0.6220703-3.1015625,1.7529297-4.2319336c0.9414063-0.9418945,1.4599609-2.1938477,1.4599609-3.5249023    c0-3.300293,2.6845703-5.9848633,5.984375-5.9848633c1.3310547,0,2.5830078-0.5185547,3.5253906-1.4599609    c2.3320313-2.3330078,6.1289063-2.3339844,8.4628906,0c0.9423828,0.9414063,2.1943359,1.4599609,3.5253906,1.4599609    c3.2998047,0,5.984375,2.6845703,5.984375,5.9848633c0,1.3310547,0.5185547,2.5830078,1.4599609,3.5249023    c2.3330078,2.3334961,2.3330078,6.1303711,0,8.4633789c-0.9414063,0.9418945-1.4599609,2.1938477-1.4599609,3.5249023    c0,2.4492188-1.4716797,4.6254883-3.75,5.5449219C37.4312744,34.2788696,37.3677979,34.2905884,37.3052979,34.2905884z"/>
    </g>
    <g>
        <path d="M27.5015869,37.881897c-0.1904297,0-0.3808594-0.0092773-0.5703125-0.0273438    c-0.2744141-0.0258789-0.4765625-0.2700195-0.4501953-0.5449219c0.0273438-0.2753906,0.2763672-0.4799805,0.5458984-0.4501953    c0.3144531,0.0292969,0.6347656,0.0292969,0.9492188,0c0.2705078-0.0288086,0.5185547,0.1748047,0.5458984,0.4501953    c0.0263672,0.2749023-0.1757813,0.519043-0.4501953,0.5449219C27.8824463,37.8726196,27.6920166,37.881897,27.5015869,37.881897z"/>
    </g>
    <g>
        <path d="M33.2174072,50.9985962c-0.0058594,0-0.0107422,0-0.0166016-0.0004883    c-0.1992188-0.0063477-0.375-0.1303711-0.4482422-0.315918l-5.1933594-13.1416016    c-0.0576172-0.1459961-0.0439453-0.3110352,0.0380859-0.4448242s0.2226563-0.2216797,0.3789063-0.2363281    c1.1845703-0.1132813,2.2392578-0.6015625,3.0498047-1.4121094c1.1308594-1.1303711,2.6337891-1.7529297,4.2324219-1.7529297    c0.6298828,0,1.2558594-0.1235352,1.859375-0.3676758c0.125-0.0493164,0.2617188-0.0478516,0.3847656,0.0043945    c0.1220703,0.0527344,0.21875,0.1518555,0.2675781,0.2758789l5.1591797,13.0537109    c0.0732422,0.1850586,0.0292969,0.3959961-0.1113281,0.5371094c-0.140625,0.1416016-0.3505859,0.1865234-0.5371094,0.1113281    l-5.8994141-2.3305664l-2.7119141,5.7338867C33.5865479,50.8877563,33.40979,50.9985962,33.2174072,50.9985962z     M28.7203369,37.7593384l4.5380859,11.4829102l2.4189453-5.1147461c0.1123047-0.2387695,0.3935547-0.3486328,0.6357422-0.2509766    l5.2626953,2.0791016l-4.5576172-11.5317383c-0.5761719,0.1796875-1.1660156,0.2705078-1.7597656,0.2705078    c-1.3310547,0-2.5830078,0.5185547-3.5253906,1.4599609C30.9078369,36.9795532,29.8756104,37.5274048,28.7203369,37.7593384z"/>
    </g>
    <g>
        <path d="M21.7857666,50.9985962c-0.1923828,0-0.3691406-0.1108398-0.4521484-0.2861328l-2.7119141-5.7338867L12.72229,47.3091431    c-0.1845703,0.0751953-0.3955078,0.0302734-0.5371094-0.1113281c-0.140625-0.1411133-0.1845703-0.3520508-0.1113281-0.5371094    l5.1591797-13.0537109c0.0488281-0.1240234,0.1455078-0.2231445,0.2675781-0.2758789    c0.1210938-0.0522461,0.2597656-0.0537109,0.3847656-0.0043945c0.6035156,0.2441406,1.2294922,0.3676758,1.859375,0.3676758    c1.5986328,0,3.1015625,0.6225586,4.2324219,1.7529297c0.8105469,0.8105469,1.8652344,1.2988281,3.0498047,1.4121094    c0.15625,0.0146484,0.296875,0.1025391,0.3789063,0.2363281s0.0957031,0.2988281,0.0380859,0.4448242l-5.1933594,13.1416016    c-0.0732422,0.1855469-0.2490234,0.3095703-0.4482422,0.315918C21.7965088,50.9985962,21.791626,50.9985962,21.7857666,50.9985962    z M18.8736572,43.8413696c0.1875,0,0.3671875,0.1064453,0.4521484,0.2861328l2.4189453,5.1147461l4.5380859-11.4829102    c-1.1552734-0.2319336-2.1875-0.7797852-3.0126953-1.6049805c-0.9423828-0.9414063-2.1943359-1.4599609-3.5253906-1.4599609    c-0.59375,0-1.1835938-0.0908203-1.7597656-0.2705078l-4.5576172,11.5317383l5.2626953-2.0791016    C18.7496338,43.8526001,18.8121338,43.8413696,18.8736572,43.8413696z"/>
    </g>
    </g>
</svg>